
<svg version="1.0" xmlns="http://www.w3.org/2000/svg"
 width="209" height="54" viewBox="0 0 209 54">

<g transform="translate(0.000000,200.000000) scale(0.100000,-0.100000)"
fill="#000000" stroke="none">
<path d="M1130 1414 c-52 -36 -104 -70 -116 -77 -12 -7 -100 -66 -198 -131
-153 -103 -174 -121 -158 -131 9 -6 89 -55 177 -109 88 -53 167 -101 175 -106
8 -5 56 -32 105 -61 50 -29 100 -59 113 -67 42 -27 22 -5 -50 56 -40 33 -90
75 -110 94 -20 18 -84 71 -142 118 -58 46 -106 87 -106 91 0 3 43 44 95 90
101 90 322 299 315 298 -3 0 -48 -29 -100 -65z"/>
</g>
<path id="Polygon_1_copy_2" data-name="Polygon 1 copy 2" class="cls-1" d="M43.851,29.7L24.244,39.2,32.037,14.02Z"/>
  <path id="Polygon_1_copy_2-2" data-name="Polygon 1 copy 2" class="cls-2" d="M30.033,29.7L56.64,39.2,48.847,14.02Z"/>
  <text id="Athiba" class="cls-3" transform="translate(71.466 35.437) scale(0.923)">Athiba</text>

</svg>
